<svg width="23" height="24" viewBox="0 0 23 24" fill="none" xmlns="http://www.w3.org/2000/svg">
<path d="M11.4522 2.22913C9.68333 2.22913 7.95416 2.7956 6.48338 3.85693C5.0126 4.91825 3.86627 6.42674 3.18935 8.19166C2.51242 9.95657 2.33531 11.8986 2.6804 13.7723C3.02549 15.6459 3.8773 17.3669 5.12809 18.7177C6.37889 20.0685 7.9725 20.9884 9.7074 21.3611C11.4423 21.7338 13.2406 21.5425 14.8748 20.8115C16.5091 20.0804 17.9059 18.8424 18.8886 17.2541C19.8714 15.6657 20.3959 13.7982 20.3959 11.8879C20.3932 9.32716 19.45 6.87212 17.7733 5.06139C16.0967 3.25066 13.8234 2.23209 11.4522 2.22913ZM14.5857 12.5061L10.4579 15.478C10.3543 15.5528 10.2339 15.5957 10.1094 15.6022C9.98503 15.6088 9.8613 15.5787 9.75147 15.5153C9.64165 15.4518 9.54985 15.3573 9.48588 15.2418C9.42192 15.1264 9.38819 14.9944 9.3883 14.8599V8.91598C9.38819 8.78146 9.42192 8.64942 9.48588 8.53399C9.54985 8.41855 9.64165 8.32405 9.75147 8.26057C9.8613 8.1971 9.98503 8.16703 10.1094 8.17359C10.2339 8.18014 10.3543 8.22307 10.4579 8.2978L14.5857 11.2697C14.68 11.3376 14.7572 11.4295 14.8107 11.5373C14.8641 11.6452 14.8921 11.7656 14.8921 11.8879C14.8921 12.0102 14.8641 12.1307 14.8107 12.2385C14.7572 12.3463 14.68 12.4383 14.5857 12.5061Z" fill="white"/>
</svg>
