<svg width="25" height="26" viewBox="0 0 25 26" fill="none" xmlns="http://www.w3.org/2000/svg">
<path d="M9.93533 2.06761H14.4677C14.668 2.06761 14.8602 1.98524 15.0018 1.83863C15.1435 1.69201 15.2231 1.49316 15.2231 1.28582C15.2231 1.07847 15.1435 0.879623 15.0018 0.733009C14.8602 0.586395 14.668 0.504028 14.4677 0.504028H9.93533C9.73498 0.504028 9.54285 0.586395 9.40118 0.733009C9.25952 0.879623 9.17993 1.07847 9.17993 1.28582C9.17993 1.49316 9.25952 1.69201 9.40118 1.83863C9.54285 1.98524 9.73498 2.06761 9.93533 2.06761Z" fill="black"/>
<path d="M12.2017 3.63098C10.4089 3.63098 8.6563 4.1812 7.16561 5.21205C5.67492 6.24289 4.51307 7.70808 3.82698 9.42232C3.14089 11.1366 2.96138 13.0229 3.31114 14.8427C3.66091 16.6625 4.52424 18.3341 5.79197 19.6462C7.0597 20.9582 8.67488 21.8517 10.4333 22.2137C12.1917 22.5757 14.0143 22.3899 15.6706 21.6798C17.327 20.9697 18.7427 19.7673 19.7388 18.2245C20.7348 16.6818 21.2665 14.8679 21.2665 13.0125C21.2637 10.5252 20.3078 8.14062 18.6085 6.38186C16.9091 4.6231 14.605 3.63379 12.2017 3.63098ZM16.4749 9.69558L12.7359 13.5653C12.6658 13.6379 12.5825 13.6954 12.4908 13.7347C12.3992 13.774 12.301 13.7943 12.2017 13.7943C12.1025 13.7943 12.0043 13.7741 11.9127 13.7348C11.821 13.6955 11.7377 13.6379 11.6676 13.5653C11.5974 13.4927 11.5418 13.4065 11.5038 13.3117C11.4658 13.2168 11.4463 13.1152 11.4463 13.0125C11.4463 12.9098 11.4658 12.8082 11.5038 12.7133C11.5418 12.6184 11.5974 12.5323 11.6675 12.4597L15.4066 8.58998C15.4767 8.51738 15.56 8.4598 15.6516 8.42051C15.7433 8.38121 15.8415 8.36099 15.9407 8.36099C16.0399 8.36099 16.1381 8.3812 16.2298 8.42049C16.3214 8.45978 16.4047 8.51736 16.4749 8.58996C16.545 8.66255 16.6007 8.74873 16.6386 8.84358C16.6766 8.93843 16.6961 9.04009 16.6961 9.14276C16.6961 9.24543 16.6766 9.34709 16.6386 9.44194C16.6007 9.53679 16.545 9.62298 16.4749 9.69558H16.4749Z" fill="black"/>
</svg>
