<svg width="34" height="28" viewBox="0 0 34 28" fill="none" xmlns="http://www.w3.org/2000/svg">
<path d="M33.1849 3.22451C31.9777 3.76718 30.6913 4.12688 29.3502 4.30153C30.7299 3.45738 31.7829 2.13087 32.278 0.531978C30.9916 1.31791 29.5714 1.87305 28.0578 2.18284C26.8364 0.850092 25.0956 0.0246582 23.1965 0.0246582C19.512 0.0246582 16.5457 3.08937 16.5457 6.84644C16.5457 7.38703 16.5903 7.90682 16.6999 8.40167C11.167 8.12514 6.27126 5.40765 2.98238 1.26801C2.4082 2.28888 2.0714 3.45738 2.0714 4.71528C2.0714 7.07723 3.25832 9.17096 5.02753 10.3831C3.95829 10.3623 2.90934 10.0442 2.02068 9.54314C2.02068 9.56393 2.02068 9.59096 2.02068 9.61799C2.02068 12.9322 4.32756 15.685 7.35268 16.3192C6.81096 16.471 6.22054 16.5437 5.60781 16.5437C5.18173 16.5437 4.7516 16.5188 4.34785 16.4273C5.21014 19.1281 7.65701 21.1138 10.5665 21.1782C8.30221 22.9933 5.42723 24.087 2.31487 24.087C1.76909 24.087 1.24563 24.062 0.722168 23.9934C3.67019 25.9416 7.16399 27.054 10.9317 27.054C23.1783 27.054 29.8737 16.6581 29.8737 7.64692C29.8737 7.34544 29.8635 7.05436 29.8493 6.76535C31.1702 5.80477 32.28 4.60509 33.1849 3.22451Z" fill="black"/>
</svg>
