<svg width="34" height="26" viewBox="0 0 34 26" fill="none" xmlns="http://www.w3.org/2000/svg">
<path d="M17.3512 8.30081C17.3507 8.28669 17.35 8.27256 17.3484 8.25834C17.3468 8.24407 17.3445 8.23 17.342 8.21597C17.3406 8.20871 17.3402 8.20151 17.3387 8.19421L16.3114 3.50315C16.2893 3.40182 16.2411 3.3048 16.1697 3.21763C16.0984 3.13046 16.0051 3.05486 15.8953 2.99513C15.7855 2.9354 15.6613 2.89273 15.5298 2.86954C15.3983 2.84636 15.2621 2.84312 15.129 2.86001C14.9959 2.8769 14.8684 2.91358 14.7539 2.96798C14.6395 3.02237 14.5402 3.09339 14.4618 3.177C14.3834 3.2606 14.3274 3.35514 14.297 3.45522C14.2666 3.5553 14.2624 3.65896 14.2847 3.76027L15.1126 7.54092H12.7298V3.63171C12.7298 3.42435 12.6215 3.22549 12.4289 3.07886C12.2362 2.93224 11.9749 2.84987 11.7025 2.84987C11.43 2.84987 11.1687 2.93224 10.976 3.07886C10.7834 3.22549 10.6751 3.42435 10.6751 3.63171V7.54092H8.29228L9.1202 3.76027C9.14247 3.65896 9.1383 3.5553 9.10793 3.45522C9.07755 3.35514 9.02155 3.2606 8.94315 3.177C8.86474 3.09339 8.76545 3.02237 8.65096 2.96798C8.53647 2.91358 8.40902 2.8769 8.2759 2.86001C8.14277 2.84312 8.00657 2.84636 7.87509 2.86954C7.74361 2.89273 7.61942 2.9354 7.50962 2.99513C7.39982 3.05486 7.30656 3.13046 7.23516 3.21763C7.16377 3.3048 7.11565 3.40182 7.09354 3.50315L6.06623 8.19421C6.06466 8.20151 6.06429 8.20871 6.06291 8.21597C6.0604 8.23 6.05808 8.24407 6.05651 8.25834C6.05494 8.27256 6.05425 8.28669 6.05368 8.30081C6.05344 8.30816 6.05225 8.31537 6.05225 8.32277C6.05225 8.32973 6.05287 8.33656 6.05294 8.34347C6.05312 8.3483 6.05312 8.35307 6.05344 8.35784C6.06584 9.35605 6.53357 10.32 7.37662 11.0847C8.21966 11.8495 9.38565 12.3676 10.6751 12.5504V22.3959C10.6751 22.6033 10.7834 22.8022 10.976 22.9488C11.1687 23.0954 11.43 23.1778 11.7025 23.1778C11.9749 23.1778 12.2362 23.0954 12.4289 22.9488C12.6215 22.8022 12.7298 22.6033 12.7298 22.3959V12.5504C14.0193 12.3676 15.1852 11.8495 16.0283 11.0847C16.8713 10.32 17.3391 9.35605 17.3515 8.35784C17.3518 8.35307 17.3518 8.3483 17.352 8.34347C17.352 8.33656 17.3527 8.32973 17.3527 8.32277C17.3527 8.31537 17.3515 8.30816 17.3512 8.30081Z" fill="black"/>
<path d="M28.1386 3.61786C28.1383 3.60173 28.1371 3.5856 28.1354 3.56942C28.1343 3.55845 28.133 3.54757 28.1312 3.53673C28.129 3.52323 28.1263 3.50972 28.1231 3.49622C28.12 3.48262 28.1165 3.46916 28.1125 3.45585C28.1093 3.44526 28.1056 3.43471 28.1018 3.42416C28.0961 3.40846 28.0899 3.393 28.083 3.37773C28.081 3.37334 28.0798 3.3689 28.0777 3.36451C28.0754 3.35979 28.0725 3.3554 28.0701 3.35072C28.0623 3.3354 28.0539 3.32036 28.045 3.30558C28.0392 3.29594 28.0332 3.28642 28.0269 3.27704C28.0185 3.26444 28.0096 3.25205 28.0002 3.23987C27.9919 3.22894 27.9835 3.2182 27.9746 3.20766C27.9661 3.19773 27.9573 3.18809 27.9482 3.17845C27.9374 3.16681 27.9264 3.1554 27.9147 3.14433C27.9062 3.13617 27.8973 3.1283 27.8884 3.12043C27.8755 3.10916 27.8625 3.09804 27.8489 3.0874C27.8393 3.07996 27.8294 3.0728 27.8195 3.06564C27.8058 3.05572 27.7921 3.04598 27.7777 3.03668C27.7662 3.02918 27.7542 3.02212 27.7422 3.01501C27.7288 3.00709 27.7153 2.99922 27.7014 2.99177C27.6872 2.98418 27.6725 2.97708 27.6577 2.97006C27.6453 2.9641 27.6328 2.95808 27.6199 2.95255C27.6032 2.94529 27.5861 2.93861 27.5688 2.93208C27.5569 2.92759 27.5451 2.9231 27.533 2.91895C27.5148 2.91275 27.4964 2.90712 27.4776 2.90168C27.4652 2.8981 27.4528 2.89452 27.4402 2.89127C27.4222 2.88665 27.404 2.88259 27.3856 2.87872C27.3709 2.87562 27.3563 2.87271 27.3415 2.87009C27.3252 2.86727 27.3087 2.86484 27.2922 2.86259C27.2741 2.86011 27.2561 2.85801 27.2379 2.8563C27.2239 2.85501 27.2099 2.85396 27.1957 2.85305C27.1747 2.85176 27.1536 2.85095 27.1323 2.85062C27.1255 2.85052 27.119 2.84985 27.1122 2.84985C27.106 2.84985 27.0999 2.85047 27.0938 2.85057C27.0727 2.85086 27.0517 2.85171 27.0305 2.853C27.0161 2.85386 27.0017 2.85486 26.9874 2.8562C26.9697 2.85787 26.952 2.85997 26.9342 2.86236C26.9164 2.86474 26.8987 2.86737 26.8812 2.87047C26.8673 2.8729 26.8534 2.87567 26.8395 2.87858C26.8189 2.88287 26.7986 2.8876 26.7785 2.8929C26.7728 2.89438 26.7669 2.89533 26.7612 2.8969C26.7485 2.90043 26.736 2.90463 26.7234 2.90821C26.7187 2.90969 26.7138 2.91098 26.709 2.91251C24.0624 3.66949 21.943 6.14047 20.4094 10.2597C19.7137 12.1605 19.209 14.0988 18.8996 16.0579C18.8843 16.1669 18.8993 16.2772 18.9436 16.3816C18.9879 16.486 19.0606 16.5821 19.157 16.6637C19.2533 16.7453 19.3711 16.8106 19.5028 16.8552C19.6344 16.8999 19.7769 16.923 19.9211 16.923H26.0849V22.3959C26.0849 22.6033 26.1932 22.8022 26.3858 22.9488C26.5785 23.0954 26.8398 23.1778 27.1122 23.1778C27.3847 23.1778 27.646 23.0954 27.8387 22.9488C28.0313 22.8022 28.1395 22.6033 28.1395 22.3959V3.6317C28.1395 3.62702 28.1387 3.62253 28.1386 3.61786Z" fill="black"/>
</svg>
